<svg version="1.1" width="1000" height="1000"
xmlns="http://www.w3.org/2000/svg">
                <radialGradient id="Hydrogen" cx="-50%" cy="-50%" r="220%" fx="20%" fy="20%">
                    <stop offset="0%" stop-color="#FFFFFF"/>
                    <stop offset="50%" stop-color="#050505"/>
                    <stop offset="100%" stop-color="#020202"/>
                </radialGradient>
            
                <radialGradient id="Carbon" cx="-50%" cy="-50%" r="220%" fx="20%" fy="20%">
                    <stop offset="0%" stop-color="#808080"/>
                    <stop offset="50%" stop-color="#010101"/>
                    <stop offset="100%" stop-color="#000000"/>
                </radialGradient>
            
                <radialGradient id="Nitrogen" cx="-50%" cy="-50%" r="220%" fx="20%" fy="20%">
                    <stop offset="0%" stop-color="#0000FF"/>
                    <stop offset="50%" stop-color="#000005"/>
                    <stop offset="100%" stop-color="#000002"/>
                </radialGradient>
            
                <radialGradient id="Oxygen" cx="-50%" cy="-50%" r="220%" fx="20%" fy="20%">
                    <stop offset="0%" stop-color="#FF0000"/>
                    <stop offset="50%" stop-color="#050000"/>
                    <stop offset="100%" stop-color="#020000"/>
                </radialGradient>
              <polygon points="874.30,704.25 856.68,713.69 612.43,257.80 630.05,248.36" fill="green"/>
  <circle cx="233.23" cy="618.12" r="25" fill="url(#Hydrogen)"/>
  <polygon points="728.80,511.84 740.36,495.52 945.53,640.68 933.97,657.00" fill="green"/>
  <polygon points="855.56,707.77 875.42,710.17 863.81,805.95 843.95,803.55" fill="green"/>
  <polygon points="461.86,846.83 457.08,866.25 200.90,803.29 205.68,783.87" fill="green"/>
  <polygon points="746.03,642.92 728.31,633.66 830.73,437.76 848.45,447.02" fill="green"/>
  <polygon points="626.39,716.44 610.97,703.70 831.88,436.02 847.30,448.76" fill="green"/>
  <polygon points="401.47,444.93 390.51,428.19 616.07,280.48 627.03,297.22" fill="green"/>
  <polygon points="495.16,508.22 505.26,490.96 742.22,629.66 732.12,646.92" fill="green"/>
  <polygon points="593.62,849.37 585.02,831.31 861.19,699.94 869.79,718.00" fill="green"/>
  <polygon points="506.91,645.79 489.67,635.67 610.22,430.27 627.46,440.39" fill="green"/>
  <polygon points="404.36,744.52 392.98,728.08 728.89,495.46 740.27,511.90" fill="green"/>
  <polygon points="730.61,494.50 738.55,512.86 258.23,720.84 250.29,702.48" fill="green"/>
  <polygon points="491.29,504.92 508.71,495.08 627.39,705.15 609.97,714.99" fill="green"/>
  <polygon points="508.90,504.56 491.10,495.44 491.31,495.03 509.11,504.15" fill="green"/>
  <circle cx="500.21" cy="499.59" r="40" fill="url(#Carbon)"/>
  <circle cx="618.68" cy="710.07" r="40" fill="url(#Carbon)"/>
  <polygon points="490.00,499.88 510.00,500.12 508.29,640.85 488.29,640.61" fill="green"/>
  <polygon points="598.34,836.02 580.30,844.66 386.97,440.88 405.01,432.24" fill="green"/>
  <polygon points="491.02,495.65 509.40,503.53 407.86,740.24 389.48,732.36" fill="green"/>
  <polygon points="489.19,644.88 507.39,636.58 598.42,836.19 580.22,844.49" fill="green"/>
  <polygon points="611.91,702.71 625.45,717.43 466.24,863.90 452.70,849.18" fill="green"/>
  <polygon points="408.67,736.21 388.67,736.39 385.99,436.65 405.99,436.47" fill="green"/>
  <polygon points="450.64,851.84 468.30,861.24 417.54,956.56 399.88,947.16" fill="green"/>
  <polygon points="874.96,705.77 856.02,712.17 702.22,257.10 721.16,250.70" fill="green"/>
  <polygon points="844.90,433.92 834.28,450.86 528.42,259.07 539.04,242.13" fill="green"/>
  <circle cx="711.69" cy="253.90" r="25" fill="url(#Hydrogen)"/>
  <polygon points="726.53,509.61 742.63,497.75 906.36,719.99 890.26,731.85" fill="green"/>
  <circle cx="533.73" cy="250.60" r="25" fill="url(#Hydrogen)"/>
  <circle cx="408.71" cy="951.86" r="25" fill="url(#Hydrogen)"/>
  <polygon points="464.80,848.08 454.14,865.00 213.48,713.40 224.14,696.48" fill="green"/>
  <circle cx="218.81" cy="704.94" r="25" fill="url(#Hydrogen)"/>
  <circle cx="203.29" cy="793.58" r="25" fill="url(#Hydrogen)"/>
  <circle cx="498.29" cy="640.73" r="40" fill="url(#Carbon)"/>
  <circle cx="734.58" cy="503.68" r="40" fill="url(#Carbon)"/>
  <circle cx="865.49" cy="708.97" r="40" fill="url(#Carbon)"/>
  <circle cx="621.55" cy="288.85" r="40" fill="url(#Carbon)"/>
  <circle cx="459.47" cy="856.54" r="40" fill="url(#Carbon)"/>
  <circle cx="254.26" cy="711.66" r="40" fill="url(#Carbon)"/>
  <circle cx="898.31" cy="725.92" r="25" fill="url(#Hydrogen)"/>
  <circle cx="939.75" cy="648.84" r="25" fill="url(#Hydrogen)"/>
  <circle cx="853.88" cy="804.75" r="25" fill="url(#Hydrogen)"/>
  <circle cx="621.24" cy="253.08" r="25" fill="url(#Hydrogen)"/>
  <circle cx="395.99" cy="436.56" r="40" fill="url(#Oxygen)"/>
  <circle cx="839.59" cy="442.39" r="40" fill="url(#Oxygen)"/>
  <circle cx="398.67" cy="736.30" r="40" fill="url(#Nitrogen)"/>
  <circle cx="737.17" cy="638.29" r="40" fill="url(#Nitrogen)"/>
  <circle cx="589.32" cy="840.34" r="40" fill="url(#Nitrogen)"/>
  <circle cx="618.84" cy="435.33" r="40" fill="url(#Nitrogen)"/>
</svg>