<svg version="1.1" width="1000" height="1000"
xmlns="http://www.w3.org/2000/svg">
                <radialGradient id="Hydrogen" cx="-50%" cy="-50%" r="220%" fx="20%" fy="20%">
                    <stop offset="0%" stop-color="#FFFFFF"/>
                    <stop offset="50%" stop-color="#050505"/>
                    <stop offset="100%" stop-color="#020202"/>
                </radialGradient>
            
                <radialGradient id="Carbon" cx="-50%" cy="-50%" r="220%" fx="20%" fy="20%">
                    <stop offset="0%" stop-color="#808080"/>
                    <stop offset="50%" stop-color="#010101"/>
                    <stop offset="100%" stop-color="#000000"/>
                </radialGradient>
            
                <radialGradient id="Nitrogen" cx="-50%" cy="-50%" r="220%" fx="20%" fy="20%">
                    <stop offset="0%" stop-color="#0000FF"/>
                    <stop offset="50%" stop-color="#000005"/>
                    <stop offset="100%" stop-color="#000002"/>
                </radialGradient>
            
                <radialGradient id="Oxygen" cx="-50%" cy="-50%" r="220%" fx="20%" fy="20%">
                    <stop offset="0%" stop-color="#FF0000"/>
                    <stop offset="50%" stop-color="#050000"/>
                    <stop offset="100%" stop-color="#020000"/>
                </radialGradient>
              <polygon points="638.46,370.96 658.30,373.42 627.18,624.35 607.34,621.89" fill="green"/>
  <polygon points="661.46,612.23 658.32,631.99 391.86,589.57 395.00,569.81" fill="green"/>
  <polygon points="506.56,492.45 493.44,507.55 381.63,410.37 394.75,395.27" fill="green"/>
  <polygon points="639.38,376.54 657.38,367.84 777.95,617.49 759.95,626.19" fill="green"/>
  <polygon points="470.23,511.96 456.77,497.18 602.43,364.53 615.89,379.31" fill="green"/>
  <polygon points="239.47,513.27 238.55,493.29 374.72,487.04 375.64,507.02" fill="green"/>
  <polygon points="242.06,512.80 235.96,493.76 645.33,362.67 651.43,381.71" fill="green"/>
  <polygon points="493.93,507.95 506.07,492.05 665.96,614.16 653.82,630.06" fill="green"/>
  <polygon points="650.32,619.20 669.46,625.02 641.10,718.14 621.96,712.32" fill="green"/>
  <polygon points="657.53,368.16 639.23,376.22 600.50,288.18 618.80,280.12" fill="green"/>
  <polygon points="604.68,504.35 623.38,497.27 669.24,618.57 650.54,625.65" fill="green"/>
  <polygon points="239.08,513.28 238.94,493.28 613.96,490.81 614.10,510.81" fill="green"/>
  <polygon points="467.90,513.55 459.10,495.59 752.74,351.91 761.54,369.87" fill="green"/>
  <polygon points="238.95,513.28 239.07,493.28 463.56,494.57 463.44,514.57" fill="green"/>
  <circle cx="225.52" cy="588.68" r="25" fill="url(#Hydrogen)"/>
  <circle cx="614.03" cy="500.81" r="40" fill="url(#Carbon)"/>
  <circle cx="463.50" cy="504.57" r="40" fill="url(#Carbon)"/>
  <circle cx="648.38" cy="372.19" r="40" fill="url(#Carbon)"/>
  <circle cx="659.89" cy="622.11" r="40" fill="url(#Carbon)"/>
  <circle cx="375.18" cy="497.03" r="40" fill="url(#Carbon)"/>
  <polygon points="609.23,492.04 618.83,509.58 444.73,604.75 435.13,587.21" fill="green"/>
  <polygon points="473.04,501.57 453.96,507.57 427.96,424.93 447.04,418.93" fill="green"/>
  <circle cx="439.93" cy="595.98" r="25" fill="url(#Hydrogen)"/>
  <circle cx="437.50" cy="421.93" r="25" fill="url(#Hydrogen)"/>
  <circle cx="757.14" cy="360.89" r="25" fill="url(#Hydrogen)"/>
  <circle cx="609.16" cy="371.92" r="25" fill="url(#Hydrogen)"/>
  <circle cx="609.65" cy="284.15" r="25" fill="url(#Hydrogen)"/>
  <circle cx="617.26" cy="623.12" r="25" fill="url(#Hydrogen)"/>
  <circle cx="768.95" cy="621.84" r="25" fill="url(#Hydrogen)"/>
  <circle cx="631.53" cy="715.23" r="25" fill="url(#Hydrogen)"/>
  <circle cx="393.43" cy="579.69" r="25" fill="url(#Hydrogen)"/>
  <circle cx="388.19" cy="402.82" r="25" fill="url(#Hydrogen)"/>
  <circle cx="239.01" cy="503.28" r="40" fill="url(#Oxygen)"/>
</svg>